<svg width="58" height="66" viewBox="0 0 58 66" fill="none" xmlns="http://www.w3.org/2000/svg">
<path d="M11.4941 25.2819V30.2688L9.79996 25.559L9.23525 24.7278L8.67055 25.559V30.2688C8.67055 30.2688 6.29637 27.4531 6.12937 25.2819C6.09618 24.8504 6.09594 24.6053 6.12937 24.1737L6.12985 24.1676C6.2867 22.1428 6.44093 20.1518 8.3882 19.4639C9.32192 19.1341 9.97035 19.2135 10.9294 19.4639C13.2098 20.0593 14.039 21.9246 14.6 24.1737C15.13 26.2991 13.7529 29.7147 13.7529 29.7147L13.1882 25.559L12.0588 24.1737L11.4941 25.2819Z" fill="url(#paint0_linear_1469_7960)"/>
<path d="M5.15076 32.4852H52.9872C52.9872 32.4852 53.1042 34.2069 52.6306 35.8098C50.5785 42.7559 38.7502 48 38.7502 48H18.2488C18.2488 48 7.36976 43.023 5.15076 35.8098C4.81155 34.7072 5.15076 32.4852 5.15076 32.4852Z" fill="url(#paint1_linear_1469_7960)"/>
<path fill-rule="evenodd" clip-rule="evenodd" d="M39.2709 25.3287C38.7939 25.3448 38.3393 25.6471 38.2578 26.2226C38.1194 27.2005 37.0766 27.8033 36.1397 27.4272C35.1928 27.0471 34.3591 28.1644 35.0144 28.9353L35.9972 30.0914C36.0971 30.2089 36.081 30.3836 35.9613 30.4816C35.8415 30.5796 35.6635 30.5638 35.5636 30.4463L34.5808 29.2902C33.5484 28.0757 34.8617 26.3155 36.3535 26.9143C36.9436 27.1512 37.6099 26.7719 37.6985 26.1463C37.8234 25.264 38.5436 24.7989 39.2515 24.775C39.9617 24.751 40.7027 25.1709 40.853 26.0559L40.8875 26.2591C40.9921 26.875 41.6237 27.261 42.2332 27.0816C43.7649 26.6307 44.9663 28.3977 43.9539 29.6123L43.2604 30.4443C43.1617 30.5627 42.9838 30.5802 42.8631 30.4833C42.7424 30.3865 42.7246 30.2119 42.8233 30.0935L43.5168 29.2615C44.1766 28.47 43.3936 27.3185 42.3954 27.6123C41.4602 27.8876 40.491 27.2952 40.3305 26.3502L40.296 26.147C40.1997 25.5802 39.7457 25.3127 39.2709 25.3287Z" fill="url(#paint2_linear_1469_7960)"/>
<path fill-rule="evenodd" clip-rule="evenodd" d="M18.9985 24.4085C18.7943 23.4249 17.3844 23.3657 17.0954 24.3287L16.8245 24.2504M18.9985 24.4085L19.2752 24.3533L18.9985 24.4085ZM16.5537 24.1722C17.009 22.6551 19.2302 22.7483 19.5518 24.298C19.6791 24.911 20.3707 25.2438 20.95 24.9683C21.767 24.5799 22.5613 24.9089 22.975 25.4731C23.39 26.0392 23.4459 26.877 22.7796 27.4914L22.6266 27.6325C22.163 28.0601 22.1869 28.7898 22.6776 29.1873C23.9108 30.1862 23.0813 32.1483 21.4896 31.9974L20.3993 31.894C20.2441 31.8793 20.1304 31.7439 20.1454 31.5916C20.1604 31.4393 20.2984 31.3277 20.4536 31.3425L21.5439 31.4458C22.5812 31.5442 23.1217 30.2656 22.318 29.6146C21.5651 29.0047 21.5284 27.8848 22.2399 27.2287L22.3929 27.0876C22.8196 26.6941 22.794 26.1751 22.5166 25.7967C22.2378 25.4165 21.7291 25.2136 21.1962 25.467C20.2907 25.8975 19.2005 25.3819 18.9985 24.4085L19.2752 24.3533M17.0954 24.3287L16.662 25.7729C16.6179 25.9197 16.4609 26.0036 16.3114 25.9604C16.1618 25.9172 16.0762 25.7632 16.1203 25.6164L16.5537 24.1722" fill="url(#paint3_linear_1469_7960)"/>
<path fill-rule="evenodd" clip-rule="evenodd" d="M38.1722 30.2906C38.0621 30.4843 37.9601 30.755 37.8589 31.1223C37.8182 31.27 37.6632 31.3574 37.5127 31.3175C37.3621 31.2775 37.2731 31.1254 37.3138 30.9777C37.4198 30.5929 37.5361 30.2721 37.679 30.0207C37.8229 29.7674 38.0034 29.5678 38.2442 29.4521C38.4864 29.3356 38.7531 29.3215 39.0346 29.3708C39.3125 29.4196 39.6212 29.533 39.9649 29.6909C40.1061 29.7558 40.167 29.9207 40.1009 30.0593C40.0347 30.1979 39.8666 30.2576 39.7254 30.1927C39.3989 30.0427 39.1419 29.9525 38.9353 29.9163C38.7323 29.8807 38.5958 29.9001 38.4927 29.9496C38.3881 29.9999 38.2811 30.0988 38.1722 30.2906Z" fill="url(#paint4_linear_1469_7960)"/>
<path fill-rule="evenodd" clip-rule="evenodd" d="M17.7018 27.6578C17.4765 27.6756 17.1904 27.7429 16.823 27.8644C16.6752 27.9133 16.515 27.8354 16.4652 27.6904C16.4154 27.5454 16.4948 27.3883 16.6425 27.3394C17.0275 27.212 17.3639 27.1286 17.6563 27.1055C17.9509 27.0821 18.2203 27.1184 18.4523 27.2505C18.6855 27.3834 18.8457 27.5931 18.9603 27.8502C19.0734 28.1039 19.1489 28.4188 19.2061 28.787C19.2296 28.9382 19.1237 29.0795 18.9695 29.1026C18.8154 29.1256 18.6713 29.0217 18.6479 28.8704C18.5935 28.5207 18.5271 28.261 18.443 28.0723C18.3603 27.8869 18.2681 27.7863 18.1687 27.7298C18.0681 27.6724 17.9248 27.6401 17.7018 27.6578Z" fill="url(#paint5_linear_1469_7960)"/>
<path fill-rule="evenodd" clip-rule="evenodd" d="M52.5599 27.0153C52.8318 27.3889 52.7436 27.9079 52.3629 28.1748L48.41 30.9452C48.0293 31.2121 47.5003 31.1255 47.2284 30.752C46.9565 30.3785 47.0446 29.8594 47.4253 29.5926L51.3782 26.8221C51.7589 26.5553 52.288 26.6418 52.5599 27.0153Z" fill="url(#paint6_linear_1469_7960)"/>
<path fill-rule="evenodd" clip-rule="evenodd" d="M42.9599 17.5956C43.2318 17.9692 43.1436 18.4883 42.7629 18.7551L38.81 21.5256C38.4293 21.7924 37.9003 21.7059 37.6284 21.3323C37.3565 20.9588 37.4446 20.4397 37.8253 20.1729L41.7782 17.4024C42.1589 17.1356 42.688 17.2221 42.9599 17.5956Z" fill="url(#paint7_linear_1469_7960)"/>
<path d="M49.6118 23.0671C49.6118 24.5972 47.9895 25.5605 45.3765 25.5605C43.973 25.5605 44.247 24.5957 44.247 23.0656C44.247 21.5355 45.5828 20.2966 46.9863 20.2966C48.3897 20.2966 49.6118 21.537 49.6118 23.0671Z" fill="url(#paint8_linear_1469_7960)"/>
<path d="M32.38 17.4622C32.1843 18.899 30.5439 19.6046 28.1001 19.2841C26.7875 19.112 27.1672 18.2396 27.3629 16.8028C27.5586 15.366 28.9664 14.3665 30.2789 14.5386C31.5915 14.7108 32.5758 16.0254 32.38 17.4622Z" fill="url(#paint9_linear_1469_7960)"/>
<path fill-rule="evenodd" clip-rule="evenodd" d="M35.6657 22.2049C36.1249 21.8411 36.3412 21.4296 36.3412 21.1262C36.3412 20.8449 36.1498 20.5088 35.7047 20.2143C35.2693 19.9263 34.6738 19.741 34.0824 19.741C33.5553 19.741 32.9023 20.0197 32.3638 20.4583C32.101 20.6723 31.8871 20.9075 31.7428 21.1333C31.5953 21.364 31.5412 21.5515 31.5412 21.6803C31.5412 21.8872 31.7072 22.1604 32.2465 22.4131C32.7585 22.6531 33.4491 22.7885 34.0824 22.7885C34.6351 22.7885 35.219 22.5588 35.6657 22.2049ZM34.0824 23.3426C35.4858 23.3426 36.9059 22.1973 36.9059 21.1262C36.9059 20.0552 35.4858 19.1869 34.0824 19.1869C32.6789 19.1869 30.9765 20.6093 30.9765 21.6803C30.9765 22.7514 32.6789 23.3426 34.0824 23.3426Z" fill="url(#paint10_linear_1469_7960)"/>
<path fill-rule="evenodd" clip-rule="evenodd" d="M30.5833 28.8541C31.0426 28.4903 31.2588 28.0788 31.2588 27.7754C31.2588 27.4941 31.0674 27.158 30.6224 26.8635C30.187 26.5754 29.5914 26.3902 29 26.3902C28.473 26.3902 27.82 26.6689 27.2814 27.1075C27.0186 27.3215 26.8048 27.5567 26.6604 27.7825C26.513 28.0132 26.4588 28.2006 26.4588 28.3295C26.4588 28.5364 26.6249 28.8096 27.1642 29.0623C27.6761 29.3023 28.3667 29.4377 29 29.4377C29.5527 29.4377 30.1366 29.208 30.5833 28.8541ZM29 29.9918C30.4035 29.9918 31.8235 28.8465 31.8235 27.7754C31.8235 26.7043 30.4035 25.8361 29 25.8361C27.5965 25.8361 25.8941 27.2584 25.8941 28.3295C25.8941 29.4006 27.5965 29.9918 29 29.9918Z" fill="url(#paint11_linear_1469_7960)"/>
<path fill-rule="evenodd" clip-rule="evenodd" d="M27.7598 23.8672C28.219 23.5034 28.4353 23.0919 28.4353 22.7885C28.4353 22.5072 28.2439 22.1711 27.7988 21.8766C27.3634 21.5886 26.7679 21.4033 26.1765 21.4033C25.6494 21.4033 24.9965 21.682 24.4579 22.1206C24.1951 22.3346 23.9813 22.5698 23.8369 22.7956C23.6894 23.0263 23.6353 23.2137 23.6353 23.3426C23.6353 23.5495 23.8013 23.8227 24.3406 24.0754C24.8526 24.3154 25.5432 24.4508 26.1765 24.4508C26.7292 24.4508 27.3131 24.2211 27.7598 23.8672ZM26.1765 25.0049C27.5799 25.0049 29 23.8596 29 22.7885C29 21.7174 27.5799 20.8492 26.1765 20.8492C24.773 20.8492 23.0706 22.2715 23.0706 23.3426C23.0706 24.4137 24.773 25.0049 26.1765 25.0049Z" fill="url(#paint12_linear_1469_7960)"/>
<path d="M6.69412 1.17872C6.93373 1.93048 7.25883 3.11806 7.25883 3.11806L10.9294 19.4639L8.10589 19.464C8.10589 19.464 4.51563 -5.65612 6.69412 1.17872Z" fill="url(#paint13_linear_1469_7960)"/>
<path d="M13.12 54.176H12.32V61.376H13.12V64H7.072V61.376H7.84V58.736H5.6V61.376H6.368V64H0.32V61.376H1.12V54.176H0.32V51.552H6.368V54.176H5.6V56.608H7.84V54.176H7.072V51.552H13.12V54.176ZM23.0535 61.376V64H18.8295V62.912C18.5948 63.2533 18.2642 63.5573 17.8375 63.824C17.4215 64.0907 16.9095 64.224 16.3015 64.224C15.5015 64.224 14.8722 64.0107 14.4135 63.584C13.9548 63.1573 13.7255 62.5547 13.7255 61.776C13.7255 59.76 15.4375 58.7253 18.8615 58.672C18.8295 58.3093 18.6908 58.064 18.4455 57.936C18.2002 57.7973 17.7842 57.728 17.1975 57.728C16.7175 57.728 16.2002 57.7813 15.6455 57.888C15.1015 57.984 14.6002 58.1173 14.1415 58.288V55.344C14.7068 55.2053 15.3202 55.0933 15.9815 55.008C16.6428 54.9227 17.2882 54.88 17.9175 54.88C19.5068 54.88 20.6428 55.168 21.3255 55.744C22.0082 56.32 22.3495 57.2107 22.3495 58.416V61.376H23.0535ZM18.8295 60.256C18.3495 60.256 17.9762 60.32 17.7095 60.448C17.4535 60.576 17.3255 60.7893 17.3255 61.088C17.3255 61.2693 17.3788 61.4187 17.4855 61.536C17.6028 61.6427 17.7628 61.696 17.9655 61.696C18.2428 61.696 18.4562 61.5787 18.6055 61.344C18.7548 61.1093 18.8295 60.7787 18.8295 60.352V60.256ZM30.4013 54.88C30.6146 54.88 30.8173 54.9013 31.0093 54.944C31.2013 54.9867 31.3613 55.04 31.4893 55.104V58.16C31.0519 57.9787 30.5826 57.888 30.0813 57.888C29.4093 57.888 28.8919 58.064 28.5293 58.416C28.1666 58.768 27.9852 59.2907 27.9852 59.984V61.376H29.4253V64H23.6013V61.376H24.3053V57.728H23.6013V55.104H27.9852V56.272C28.2839 55.824 28.6253 55.4827 29.0093 55.248C29.3933 55.0027 29.8573 54.88 30.4013 54.88ZM36.7908 64.224C35.2654 64.224 34.0761 63.8293 33.2228 63.04C32.3694 62.24 31.9428 61.0773 31.9428 59.552C31.9428 58.0267 32.3694 56.8693 33.2228 56.08C34.0761 55.28 35.2601 54.88 36.7748 54.88C37.5108 54.88 38.2148 54.9813 38.8868 55.184C39.5588 55.3867 40.0814 55.616 40.4548 55.872V59.04H37.7028V58.752C37.7028 58.4 37.6281 58.144 37.4788 57.984C37.3294 57.8133 37.0948 57.728 36.7748 57.728C36.1561 57.728 35.8468 58.0693 35.8468 58.752V60.128C35.8468 60.96 36.3214 61.376 37.2708 61.376C38.1561 61.376 39.1854 61.28 40.3588 61.088V63.6C39.9961 63.76 39.4841 63.904 38.8228 64.032C38.1721 64.16 37.4948 64.224 36.7908 64.224ZM51.6151 61.376V64H46.5591V61.376H47.2311V58.752C47.2311 58.4 47.1565 58.144 47.0071 57.984C46.8578 57.8133 46.6338 57.728 46.3351 57.728C45.6951 57.728 45.3751 58.0693 45.3751 58.752V61.376H46.0471V64H40.9911V61.376H41.6951V54.176H40.9911V51.552H45.3751V56.352C45.7698 55.8613 46.1965 55.4933 46.6551 55.248C47.1138 55.0027 47.6471 54.88 48.2551 54.88C49.1405 54.88 49.8018 55.1573 50.2391 55.712C50.6871 56.2667 50.9111 57.0293 50.9111 58V61.376H51.6151ZM52.8997 54.224V51.552H56.1638V54.224H52.8997ZM52.1318 64V61.376H52.8358V57.728H52.1318V55.104H56.5158V61.376H57.2198V64H52.1318Z" fill="url(#paint14_linear_1469_7960)"/>
<defs>
<linearGradient id="paint0_linear_1469_7960" x1="8.17356" y1="-3.5979e-05" x2="53.4854" y2="0.954387" gradientUnits="userSpaceOnUse">
<stop offset="0.07" stop-color="#FCCD00"/>
<stop offset="0.695" stop-color="#C84738"/>
<stop offset="1" stop-color="#B6143B"/>
</linearGradient>
<linearGradient id="paint1_linear_1469_7960" x1="8.17356" y1="-3.5979e-05" x2="53.4854" y2="0.954387" gradientUnits="userSpaceOnUse">
<stop offset="0.07" stop-color="#FCCD00"/>
<stop offset="0.695" stop-color="#C84738"/>
<stop offset="1" stop-color="#B6143B"/>
</linearGradient>
<linearGradient id="paint2_linear_1469_7960" x1="8.17356" y1="-3.5979e-05" x2="53.4854" y2="0.954387" gradientUnits="userSpaceOnUse">
<stop offset="0.07" stop-color="#FCCD00"/>
<stop offset="0.695" stop-color="#C84738"/>
<stop offset="1" stop-color="#B6143B"/>
</linearGradient>
<linearGradient id="paint3_linear_1469_7960" x1="8.17356" y1="-3.5979e-05" x2="53.4854" y2="0.954387" gradientUnits="userSpaceOnUse">
<stop offset="0.07" stop-color="#FCCD00"/>
<stop offset="0.695" stop-color="#C84738"/>
<stop offset="1" stop-color="#B6143B"/>
</linearGradient>
<linearGradient id="paint4_linear_1469_7960" x1="8.17356" y1="-3.5979e-05" x2="53.4854" y2="0.954387" gradientUnits="userSpaceOnUse">
<stop offset="0.07" stop-color="#FCCD00"/>
<stop offset="0.695" stop-color="#C84738"/>
<stop offset="1" stop-color="#B6143B"/>
</linearGradient>
<linearGradient id="paint5_linear_1469_7960" x1="8.17356" y1="-3.5979e-05" x2="53.4854" y2="0.954387" gradientUnits="userSpaceOnUse">
<stop offset="0.07" stop-color="#FCCD00"/>
<stop offset="0.695" stop-color="#C84738"/>
<stop offset="1" stop-color="#B6143B"/>
</linearGradient>
<linearGradient id="paint6_linear_1469_7960" x1="8.17356" y1="-3.5979e-05" x2="53.4854" y2="0.954387" gradientUnits="userSpaceOnUse">
<stop offset="0.07" stop-color="#FCCD00"/>
<stop offset="0.695" stop-color="#C84738"/>
<stop offset="1" stop-color="#B6143B"/>
</linearGradient>
<linearGradient id="paint7_linear_1469_7960" x1="8.17356" y1="-3.5979e-05" x2="53.4854" y2="0.954387" gradientUnits="userSpaceOnUse">
<stop offset="0.07" stop-color="#FCCD00"/>
<stop offset="0.695" stop-color="#C84738"/>
<stop offset="1" stop-color="#B6143B"/>
</linearGradient>
<linearGradient id="paint8_linear_1469_7960" x1="8.17356" y1="-3.5979e-05" x2="53.4854" y2="0.954387" gradientUnits="userSpaceOnUse">
<stop offset="0.07" stop-color="#FCCD00"/>
<stop offset="0.695" stop-color="#C84738"/>
<stop offset="1" stop-color="#B6143B"/>
</linearGradient>
<linearGradient id="paint9_linear_1469_7960" x1="8.17356" y1="-3.5979e-05" x2="53.4854" y2="0.954387" gradientUnits="userSpaceOnUse">
<stop offset="0.07" stop-color="#FCCD00"/>
<stop offset="0.695" stop-color="#C84738"/>
<stop offset="1" stop-color="#B6143B"/>
</linearGradient>
<linearGradient id="paint10_linear_1469_7960" x1="8.17356" y1="-3.5979e-05" x2="53.4854" y2="0.954387" gradientUnits="userSpaceOnUse">
<stop offset="0.07" stop-color="#FCCD00"/>
<stop offset="0.695" stop-color="#C84738"/>
<stop offset="1" stop-color="#B6143B"/>
</linearGradient>
<linearGradient id="paint11_linear_1469_7960" x1="8.17356" y1="-3.5979e-05" x2="53.4854" y2="0.954387" gradientUnits="userSpaceOnUse">
<stop offset="0.07" stop-color="#FCCD00"/>
<stop offset="0.695" stop-color="#C84738"/>
<stop offset="1" stop-color="#B6143B"/>
</linearGradient>
<linearGradient id="paint12_linear_1469_7960" x1="8.17356" y1="-3.5979e-05" x2="53.4854" y2="0.954387" gradientUnits="userSpaceOnUse">
<stop offset="0.07" stop-color="#FCCD00"/>
<stop offset="0.695" stop-color="#C84738"/>
<stop offset="1" stop-color="#B6143B"/>
</linearGradient>
<linearGradient id="paint13_linear_1469_7960" x1="8.17356" y1="-3.5979e-05" x2="53.4854" y2="0.954387" gradientUnits="userSpaceOnUse">
<stop offset="0.07" stop-color="#FCCD00"/>
<stop offset="0.695" stop-color="#C84738"/>
<stop offset="1" stop-color="#B6143B"/>
</linearGradient>
<linearGradient id="paint14_linear_1469_7960" x1="3.83471" y1="50" x2="58.2933" y2="54.1582" gradientUnits="userSpaceOnUse">
<stop stop-color="#B6143B"/>
<stop offset="0.404854" stop-color="#C84738"/>
<stop offset="1" stop-color="#FAD531"/>
</linearGradient>
</defs>
</svg>
